<?xml version="1.0" encoding="utf-8"?>
<!-- Generator: Adobe Illustrator 16.0.0, SVG Export Plug-In . SVG Version: 6.00 Build 0)  -->
<!DOCTYPE svg PUBLIC "-//W3C//DTD SVG 1.1//EN" "http://www.w3.org/Graphics/SVG/1.1/DTD/svg11.dtd">
<svg version="1.1" id="Layer_1" xmlns="http://www.w3.org/2000/svg" xmlns:xlink="http://www.w3.org/1999/xlink" x="0px" y="0px"
	 width="680.664px" height="201.678px" viewBox="0 0 680.664 201.678" enable-background="new 0 0 680.664 201.678"
	 xml:space="preserve">
<g>
	<path fill="#A7A6A6" d="M656.449,201.678H23.844C10.699,201.678,0,190.949,0,177.817V23.828C0,10.689,10.699,0,23.844,0h632.605
		c13.137,0,24.215,10.689,24.215,23.828v153.989C680.664,190.949,669.586,201.678,656.449,201.678L656.449,201.678z"/>
	<path fill="#010101" d="M675.779,177.817c0,10.67-8.636,19.311-19.33,19.311H23.844c-10.685,0-19.355-8.641-19.355-19.311V23.823
		c0-10.665,8.67-19.335,19.355-19.335h632.605c10.694,0,19.33,8.67,19.33,19.335V177.817L675.779,177.817z"/>
	<g>
		<g>
			<path fill="#FFFFFF" d="M151.903,99.751c-0.145-16.251,13.307-24.156,13.922-24.525c-7.62-11.108-19.427-12.625-23.578-12.746
				c-9.917-1.043-19.538,5.933-24.589,5.933c-5.153,0-12.932-5.832-21.317-5.662c-10.791,0.167-20.884,6.413-26.418,16.115
				c-11.426,19.779-2.905,48.847,8.04,64.834c5.476,7.834,11.874,16.573,20.249,16.264c8.193-0.335,11.254-5.22,21.141-5.22
				c9.796,0,12.671,5.22,21.212,5.022c8.794-0.138,14.33-7.863,19.613-15.766c6.327-8.972,8.868-17.814,8.969-18.268
				C168.94,125.665,152.071,119.224,151.903,99.751z"/>
			<path fill="#FFFFFF" d="M135.771,51.963c4.407-5.512,7.42-13.009,6.583-20.618c-6.376,0.283-14.353,4.411-18.947,9.803
				c-4.064,4.749-7.693,12.534-6.755,19.855C123.816,61.537,131.172,57.387,135.771,51.963z"/>
		</g>
	</g>
	<g>
		<path fill="#FFFFFF" d="M270.476,158.841h-11.45l-6.272-19.71h-21.8l-5.975,19.71H213.83l21.598-67.099h13.341L270.476,158.841z
			 M250.862,130.864l-5.672-17.52c-0.598-1.792-1.723-6.007-3.382-12.642h-0.202c-0.66,2.854-1.724,7.068-3.186,12.642l-5.571,17.52
			H250.862z"/>
		<path fill="#FFFFFF" d="M326.023,134.055c0,8.228-2.223,14.731-6.672,19.508c-3.983,4.249-8.929,6.372-14.833,6.372
			c-6.374,0-10.95-2.285-13.739-6.864h-0.202v25.485h-10.749v-52.172c0-5.17-0.135-10.479-0.399-15.924h9.454l0.601,7.671h0.202
			c3.584-5.78,9.025-8.665,16.325-8.665c5.709,0,10.473,2.255,14.284,6.765C324.118,120.751,326.023,126.688,326.023,134.055z
			 M315.07,134.448c0-4.707-1.059-8.592-3.186-11.649c-2.324-3.181-5.445-4.776-9.357-4.776c-2.651,0-5.062,0.887-7.216,2.64
			c-2.157,1.763-3.57,4.067-4.229,6.923c-0.333,1.329-0.5,2.418-0.5,3.274v8.069c0,3.516,1.081,6.485,3.237,8.912
			c2.159,2.423,4.961,3.635,8.41,3.635c4.05,0,7.201-1.566,9.453-4.678C313.943,143.676,315.07,139.56,315.07,134.448z"/>
		<path fill="#FFFFFF" d="M381.672,134.055c0,8.228-2.226,14.731-6.677,19.508c-3.978,4.249-8.922,6.372-14.83,6.372
			c-6.371,0-10.95-2.285-13.732-6.864h-0.202v25.485h-10.748v-52.172c0-5.17-0.136-10.479-0.399-15.924h9.454l0.601,7.671h0.202
			c3.579-5.78,9.016-8.665,16.322-8.665c5.701,0,10.468,2.255,14.289,6.765C379.762,120.751,381.672,126.688,381.672,134.055z
			 M370.722,134.448c0-4.707-1.063-8.592-3.19-11.649c-2.324-3.181-5.436-4.776-9.355-4.776c-2.659,0-5.062,0.887-7.219,2.64
			c-2.156,1.763-3.564,4.067-4.225,6.923c-0.329,1.329-0.502,2.418-0.502,3.274v8.069c0,3.516,1.078,6.485,3.23,8.912
			c2.156,2.418,4.958,3.635,8.42,3.635c4.047,0,7.198-1.566,9.453-4.678C369.589,143.676,370.722,139.56,370.722,134.448z"/>
		<path fill="#FFFFFF" d="M443.889,140.022c0,5.711-1.979,10.354-5.957,13.939c-4.373,3.914-10.459,5.873-18.277,5.873
			c-7.224,0-13.009-1.393-17.391-4.18l2.491-8.961c4.717,2.855,9.896,4.288,15.539,4.288c4.048,0,7.199-0.915,9.464-2.747
			c2.255-1.822,3.378-4.274,3.378-7.327c0-2.723-0.926-5.017-2.787-6.878c-1.852-1.861-4.943-3.59-9.257-5.186
			c-11.748-4.382-17.617-10.803-17.617-19.242c0-5.514,2.059-10.039,6.174-13.56c4.107-3.523,9.582-5.283,16.426-5.283
			c6.105,0,11.178,1.063,15.225,3.186l-2.684,8.765c-3.781-2.059-8.06-3.087-12.846-3.087c-3.781,0-6.736,0.933-8.854,2.792
			c-1.787,1.655-2.683,3.679-2.683,6.076c0,2.649,1.019,4.845,3.077,6.568c1.792,1.591,5.042,3.318,9.764,5.18
			c5.775,2.324,10.01,5.042,12.738,8.154C442.53,131.499,443.889,135.384,443.889,140.022z"/>
		<path fill="#FFFFFF" d="M479.429,118.524h-11.847v23.492c0,5.973,2.088,8.956,6.273,8.956c1.92,0,3.516-0.162,4.775-0.497
			l0.296,8.164c-2.117,0.792-4.904,1.191-8.36,1.191c-4.244,0-7.563-1.295-9.956-3.885c-2.388-2.59-3.585-6.934-3.585-13.044
			v-24.388h-7.061v-8.064h7.061v-8.863l10.557-3.183v12.046h11.847V118.524z"/>
		<path fill="#FFFFFF" d="M532.892,134.251c0,7.436-2.127,13.541-6.372,18.317c-4.455,4.913-10.364,7.366-17.73,7.366
			c-7.1,0-12.752-2.354-16.967-7.062c-4.215-4.712-6.322-10.655-6.322-17.819c0-7.498,2.172-13.639,6.52-18.414
			c4.338-4.781,10.197-7.17,17.563-7.17c7.101,0,12.812,2.359,17.125,7.071C530.833,121.115,532.892,127.014,532.892,134.251z
			 M521.734,134.597c0-4.461-0.951-8.287-2.886-11.478c-2.25-3.865-5.476-5.786-9.646-5.786c-4.318,0-7.607,1.931-9.857,5.786
			c-1.936,3.195-2.886,7.085-2.886,11.684c0,4.461,0.95,8.287,2.886,11.473c2.324,3.86,5.568,5.79,9.764,5.79
			c4.102,0,7.326-1.969,9.65-5.889C520.739,142.927,521.734,139.058,521.734,134.597z"/>
		<path fill="#FFFFFF" d="M567.83,119.913c-1.063-0.196-2.195-0.295-3.387-0.295c-3.781,0-6.707,1.423-8.765,4.283
			c-1.792,2.521-2.688,5.707-2.688,9.553v25.387h-10.744l0.099-33.146c0-5.574-0.133-10.655-0.403-15.229h9.365l0.394,9.257h0.296
			c1.137-3.181,2.924-5.746,5.377-7.666c2.393-1.729,4.982-2.59,7.77-2.59c0.994,0,1.891,0.068,2.688,0.196V119.913z"/>
		<path fill="#FFFFFF" d="M615.906,132.36c0,1.926-0.128,3.551-0.394,4.875h-32.251c0.128,4.781,1.684,8.439,4.678,10.961
			c2.718,2.25,6.233,3.377,10.552,3.377c4.771,0,9.134-0.758,13.048-2.284l1.684,7.459c-4.579,1.994-9.98,2.989-16.224,2.989
			c-7.499,0-13.388-2.206-17.677-6.617c-4.273-4.412-6.415-10.341-6.415-17.771c0-7.292,1.994-13.368,5.982-18.213
			c4.175-5.175,9.817-7.76,16.913-7.76c6.977,0,12.255,2.585,15.84,7.76C614.479,121.243,615.906,126.324,615.906,132.36z
			 M605.655,129.574c0.069-3.19-0.63-5.938-2.088-8.263c-1.861-2.993-4.717-4.485-8.567-4.485c-3.516,0-6.371,1.458-8.558,4.382
			c-1.787,2.324-2.851,5.116-3.181,8.361h22.394V129.574z"/>
	</g>
	<g>
		<g>
			<path fill="#FFFFFF" d="M247.307,50.464c0,5.936-1.78,10.403-5.332,13.402c-3.294,2.767-7.972,4.155-14.033,4.155
				c-3.006,0-5.576-0.133-7.73-0.394V35.202c2.809-0.453,5.834-0.685,9.102-0.685c5.773,0,10.124,1.253,13.058,3.765
				C245.66,41.123,247.307,45.181,247.307,50.464z M241.735,50.611c0-3.848-1.017-6.797-3.055-8.853
				c-2.036-2.053-5.01-3.083-8.93-3.083c-1.664,0-3.08,0.111-4.254,0.345v24.648c0.65,0.101,1.839,0.148,3.569,0.148
				c4.043,0,7.165-1.125,9.363-3.375C240.628,58.194,241.735,54.917,241.735,50.611z"/>
			<path fill="#FFFFFF" d="M276.85,55.648c0,3.656-1.044,6.649-3.132,9c-2.188,2.413-5.088,3.619-8.707,3.619
				c-3.489,0-6.269-1.154-8.339-3.474c-2.068-2.314-3.102-5.233-3.102-8.752c0-3.683,1.063-6.701,3.203-9.047
				c2.137-2.343,5.01-3.518,8.631-3.518c3.488,0,6.292,1.155,8.415,3.469C275.835,49.193,276.85,52.098,276.85,55.648z
				 M271.367,55.818c0-2.194-0.473-4.072-1.416-5.641c-1.11-1.896-2.688-2.843-4.739-2.843c-2.122,0-3.737,0.948-4.845,2.843
				c-0.948,1.568-1.418,3.479-1.418,5.736c0,2.193,0.475,4.074,1.418,5.643c1.145,1.896,2.738,2.844,4.793,2.844
				c2.019,0,3.602-0.963,4.739-2.893C270.88,59.907,271.367,58.012,271.367,55.818z"/>
			<path fill="#FFFFFF" d="M316.459,43.959l-7.438,23.77h-4.84l-3.08-10.322c-0.783-2.575-1.418-5.136-1.913-7.679h-0.096
				c-0.458,2.612-1.093,5.17-1.91,7.679l-3.272,10.322h-4.897l-6.992-23.77h5.431l2.686,11.3c0.65,2.673,1.185,5.219,1.613,7.629
				h0.096c0.394-1.987,1.044-4.518,1.962-7.58l3.373-11.345h4.306l3.232,11.104c0.78,2.708,1.416,5.315,1.905,7.826h0.148
				c0.357-2.444,0.896-5.052,1.613-7.826l2.883-11.104h5.189V43.959z"/>
			<path fill="#FFFFFF" d="M343.848,67.729h-5.281V54.114c0-4.195-1.593-6.292-4.789-6.292c-1.568,0-2.833,0.576-3.818,1.73
				c-0.973,1.154-1.467,2.516-1.467,4.072v14.099h-5.283V50.751c0-2.087-0.066-4.35-0.192-6.802h4.643l0.249,3.718h0.146
				c0.615-1.155,1.534-2.107,2.737-2.871c1.433-0.886,3.036-1.334,4.791-1.334c2.218,0,4.062,0.716,5.529,2.151
				c1.829,1.761,2.735,4.388,2.735,7.876V67.729z"/>
			<path fill="#FFFFFF" d="M358.422,67.729h-5.278V33.056h5.278V67.729z"/>
			<path fill="#FFFFFF" d="M389.53,55.648c0,3.656-1.044,6.649-3.132,9c-2.186,2.413-5.091,3.619-8.705,3.619
				c-3.496,0-6.272-1.154-8.341-3.474c-2.067-2.314-3.102-5.233-3.102-8.752c0-3.683,1.063-6.701,3.2-9.047
				c2.142-2.343,5.013-3.518,8.627-3.518c3.496,0,6.292,1.155,8.424,3.469C388.516,49.193,389.53,52.098,389.53,55.648z
				 M384.045,55.818c0-2.194-0.473-4.072-1.418-5.641c-1.103-1.896-2.688-2.843-4.731-2.843c-2.132,0-3.742,0.948-4.85,2.843
				c-0.945,1.568-1.413,3.479-1.413,5.736c0,2.193,0.478,4.074,1.413,5.643c1.147,1.896,2.737,2.844,4.796,2.844
				c2.019,0,3.594-0.963,4.736-2.893C383.563,59.907,384.045,58.012,384.045,55.818z"/>
			<path fill="#FFFFFF" d="M415.104,67.729h-4.746l-0.395-2.737h-0.147c-1.62,2.184-3.934,3.276-6.942,3.276
				c-2.24,0-4.058-0.721-5.421-2.154c-1.241-1.3-1.861-2.917-1.861-4.84c0-2.902,1.211-5.115,3.648-6.649
				c2.428-1.531,5.85-2.284,10.246-2.248v-0.446c0-3.129-1.64-4.692-4.938-4.692c-2.344,0-4.411,0.589-6.194,1.758l-1.073-3.466
				c2.206-1.369,4.934-2.053,8.154-2.053c6.214,0,9.325,3.277,9.325,9.833v8.752C414.76,64.438,414.878,66.328,415.104,67.729z
				 M409.619,59.561v-3.666c-5.829-0.101-8.744,1.497-8.744,4.791c0,1.24,0.335,2.166,1.014,2.787
				c0.68,0.621,1.547,0.928,2.58,0.928c1.162,0,2.246-0.367,3.23-1.098c0.994-0.736,1.605-1.669,1.832-2.814
				C409.59,60.23,409.619,59.917,409.619,59.561z"/>
			<path fill="#FFFFFF" d="M445.13,67.729h-4.688l-0.246-3.818h-0.147c-1.497,2.905-4.048,4.357-7.633,4.357
				c-2.865,0-5.248-1.125-7.139-3.372c-1.891-2.25-2.836-5.168-2.836-8.755c0-3.846,1.023-6.962,3.082-9.34
				c1.989-2.221,4.432-3.329,7.336-3.329c3.191,0,5.427,1.073,6.697,3.228h0.098V33.056h5.288v28.27
				C444.942,63.64,445.002,65.771,445.13,67.729z M439.654,57.704v-3.961c0-0.687-0.049-1.241-0.147-1.664
				c-0.296-1.271-0.936-2.339-1.91-3.203c-0.985-0.862-2.167-1.295-3.535-1.295c-1.97,0-3.516,0.781-4.648,2.349
				c-1.122,1.568-1.694,3.57-1.694,6.017c0,2.349,0.542,4.254,1.625,5.722c1.143,1.563,2.688,2.343,4.619,2.343
				c1.732,0,3.121-0.65,4.176-1.955C439.152,60.851,439.654,59.4,439.654,57.704z"/>
			<path fill="#FFFFFF" d="M490.32,55.648c0,3.656-1.044,6.649-3.132,9c-2.186,2.413-5.081,3.619-8.705,3.619
				c-3.485,0-6.263-1.154-8.341-3.474c-2.068-2.314-3.102-5.233-3.102-8.752c0-3.683,1.063-6.701,3.2-9.047
				c2.137-2.343,5.013-3.518,8.636-3.518c3.486,0,6.293,1.155,8.41,3.469C489.307,49.193,490.32,52.098,490.32,55.648z
				 M484.845,55.818c0-2.194-0.473-4.072-1.418-5.641c-1.112-1.896-2.688-2.843-4.746-2.843c-2.117,0-3.728,0.948-4.845,2.843
				c-0.945,1.568-1.418,3.479-1.418,5.736c0,2.193,0.477,4.074,1.418,5.643c1.146,1.896,2.737,2.844,4.795,2.844
				c2.02,0,3.604-0.963,4.747-2.893C484.353,59.907,484.845,58.012,484.845,55.818z"/>
			<path fill="#FFFFFF" d="M518.73,67.729h-5.278V54.114c0-4.195-1.595-6.292-4.796-6.292c-1.565,0-2.836,0.576-3.811,1.73
				c-0.975,1.154-1.468,2.516-1.468,4.072v14.099h-5.288V50.751c0-2.087-0.059-4.35-0.187-6.802h4.638l0.246,3.718h0.148
				c0.62-1.155,1.535-2.107,2.737-2.871c1.438-0.886,3.033-1.334,4.796-1.334c2.215,0,4.057,0.716,5.524,2.151
				c1.831,1.761,2.737,4.388,2.737,7.876V67.729z"/>
			<path fill="#FFFFFF" d="M554.29,47.918h-5.819v11.546c0,2.935,1.033,4.402,3.082,4.402c0.95,0,1.732-0.081,2.354-0.246
				l0.138,4.008c-1.044,0.394-2.413,0.591-4.106,0.591c-2.083,0-3.707-0.638-4.885-1.908c-1.176-1.271-1.762-3.407-1.762-6.408
				V47.918h-3.477v-3.959h3.477v-4.355l5.18-1.563v5.913h5.819V47.918L554.29,47.918z"/>
			<path fill="#FFFFFF" d="M582.268,67.729h-5.289V54.216c0-4.26-1.595-6.394-4.785-6.394c-2.452,0-4.127,1.235-5.042,3.705
				c-0.158,0.521-0.247,1.157-0.247,1.903v14.293h-5.277V33.056h5.277v14.323h0.1c1.664-2.607,4.047-3.907,7.139-3.907
				c2.187,0,3.998,0.717,5.436,2.152c1.793,1.79,2.689,4.454,2.689,7.971V67.729z"/>
			<path fill="#FFFFFF" d="M611.12,54.72c0,0.948-0.068,1.746-0.196,2.395h-15.845c0.068,2.349,0.827,4.139,2.294,5.38
				c1.34,1.11,3.067,1.664,5.186,1.664c2.348,0,4.485-0.374,6.405-1.125l0.827,3.67c-2.25,0.978-4.904,1.467-7.977,1.467
				c-3.678,0-6.578-1.083-8.676-3.252c-2.107-2.169-3.151-5.077-3.151-8.728c0-3.584,0.976-6.571,2.935-8.949
				c2.049-2.541,4.815-3.811,8.312-3.811c3.417,0,6.017,1.27,7.77,3.811C610.422,49.26,611.12,51.756,611.12,54.72z M606.078,53.354
				c0.04-1.568-0.305-2.919-1.023-4.06c-0.916-1.467-2.314-2.203-4.205-2.203c-1.724,0-3.132,0.716-4.205,2.154
				c-0.877,1.145-1.398,2.511-1.565,4.108H606.078z"/>
		</g>
	</g>
</g>
</svg>
