<?xml version="1.0" encoding="utf-8"?>
<!-- Generator: Adobe Illustrator 16.0.0, SVG Export Plug-In . SVG Version: 6.00 Build 0)  -->
<!DOCTYPE svg PUBLIC "-//W3C//DTD SVG 1.1//EN" "http://www.w3.org/Graphics/SVG/1.1/DTD/svg11.dtd">
<svg version="1.1" id="Layer_1" xmlns="http://www.w3.org/2000/svg" xmlns:xlink="http://www.w3.org/1999/xlink" x="0px" y="0px"
	 width="2000.002px" height="1955.152px" viewBox="0 0 2000.002 1955.152" enable-background="new 0 0 2000.002 1955.152"
	 xml:space="preserve">
<rect x="1678.551" y="1335.234" fill="#E69852" stroke="#000000" stroke-width="40" stroke-miterlimit="10" width="97.895" height="579.121"/>
<path fill="#010101" d="M41.324,1955.152h-0.535c-22.523,0-40.789-18.262-40.789-40.789s18.266-40.789,40.789-40.789h0.535
	c22.523,0,40.789,18.262,40.789,40.789S63.848,1955.152,41.324,1955.152z"/>
<path fill="#010101" d="M1957.875,1955.148h-0.535c-22.523,0-40.789-18.262-40.789-40.789s18.266-40.789,40.789-40.789h0.535
	c22.523,0,40.789,18.262,40.789,40.789S1980.398,1955.148,1957.875,1955.148z"/>
<path fill="#010101" d="M307.234,1695.848l-95.18-95.176l31.727-31.73c15.93-15.93,15.93-41.754,0-57.684
	c-15.934-15.93-41.75-15.93-57.688,0L64.957,1632.398c-15.93,15.93-15.93,41.754,0,57.684c7.965,7.965,18.402,11.945,28.844,11.945
	s20.875-3.984,28.844-11.945l31.723-31.727l95.18,95.176c7.965,7.965,18.402,11.945,28.844,11.945s20.875-3.984,28.844-11.945
	C323.168,1737.602,323.168,1711.773,307.234,1695.848z"/>
<path fill="#010101" d="M1988.055,477.68l-121.137-121.141c-15.926-15.93-41.742-15.93-57.688,0c-15.93,15.93-15.93,41.754,0,57.684
	l31.727,31.73l-95.18,95.176c-15.93,15.93-15.93,41.754,0,57.684c7.965,7.965,18.402,11.945,28.844,11.945
	c10.438,0,20.875-3.984,28.844-11.945l95.18-95.176l31.723,31.727c7.965,7.965,18.402,11.945,28.844,11.945
	c10.438,0,20.875-3.984,28.844-11.945C2003.984,519.434,2003.984,493.605,1988.055,477.68z"/>
<path fill="#010101" stroke="#010101" stroke-miterlimit="10" d="M-982.875,972.227h-363.277c-22.523,0-40.789,18.262-40.789,40.789
	v220.328c0,22.527,18.266,40.789,40.789,40.789h91.906v497.559h-38.668v-275.797c0-79.512-47.984-155.027-116.68-183.652
	l-262.512-109.375c-9.332-3.887-15.367-12.934-15.367-23.051v-63.512l106.621-61.133c0.742-0.43,1.473-0.875,2.188-1.352
	c53.387-35.254,88.438-97.949,93.77-167.715c0.082-1.031,0.117-2.07,0.117-3.109v-33.863c52.969-17.23,91.363-67.074,91.363-125.715
	s-38.398-108.492-91.367-125.719v-29.281h50.418c30.66,0,55.605-24.941,55.605-55.605v-82.969c0-26.813-19.078-49.254-44.367-54.465
	c-14.883-104.465-63.957-201.145-140.445-275.363c-54.813-53.184-121.18-92.313-193.496-114.324V-44.43
	c0-31.68-24.941-57.453-55.609-57.453h-160.012c-30.664,0-55.609,25.773-55.609,57.453v27.789
	c-75.402,21.512-144.492,61.441-201.391,116.656c-77.074,74.781-126.309,172.355-140.785,277.742
	c-21.082,7.91-36.125,28.27-36.125,52.086v82.969c0,30.66,24.941,55.605,55.605,55.605h50.426v29.281
	c-52.969,17.23-91.363,67.074-91.363,125.715s38.395,108.488,91.363,125.715v33.863c0,1.035,0.039,2.074,0.117,3.109
	c5.355,70.051,40.164,132.746,93.113,167.715c0.73,0.484,1.473,0.941,2.234,1.375l107.23,61.301v63.32
	c0,10.113-6.031,19.16-15.367,23.051l-262.512,109.379c-68.699,28.625-116.68,104.148-116.68,183.648v275.797h-226.285
	c-22.523,0-40.789,18.262-40.789,40.789s18.266,40.789,40.789,40.789h1652.098c22.523,0,40.789-18.262,40.789-40.789
	s-18.266-40.789-40.789-40.789h-8.156v-497.555h91.902c22.523,0,40.789-18.262,40.789-40.789v-220.328
	C-942.086,990.488-960.352,972.227-982.875,972.227z M-2325.004,454.98c17.676-3.621,31.289-18.695,32.48-37.359
	c6.277-98.273,48.77-190.277,119.664-259.063c53.887-52.285,120.891-88.039,193.777-103.395
	c18.875-3.977,32.379-20.629,32.379-39.91v-35.559h108.066v37.301c0,19.004,13.121,35.488,31.641,39.75
	c70.059,16.125,134.59,51.332,186.621,101.816c70.887,68.781,113.383,160.785,119.66,259.063
	c1.363,21.367,19.008,38.023,40.383,38.188v31.023h-864.672V454.98z M-2163.371,985.074
	c-31.168-21.105-51.859-59.699-55.613-103.727v-66.57c0-22.527-18.266-40.789-40.789-40.789c-27.887,0-50.574-22.691-50.574-50.574
	s22.691-50.574,50.574-50.574c22.523,0,40.789-18.262,40.789-40.789v-63.637h652.625v63.637c0,22.527,18.266,40.789,40.789,40.789
	c27.887,0,50.574,22.691,50.574,50.574s-22.688,50.574-50.574,50.574c-22.523,0-40.789,18.262-40.789,40.789v66.563
	c-3.703,43.133-25.152,82.664-56.293,103.746l-218.992,125.574c-0.742,0.43-1.473,0.875-2.188,1.352
	c-30.582,20.195-67.086,20.195-97.668,0c-0.73-0.48-1.473-0.941-2.234-1.375L-2163.371,985.074z M-1768.965,1182.289
	c-29.258,38.711-74.484,61.508-123.504,61.508c-49.262,0-94.645-22.977-123.887-61.996c0.012-0.664,0.074-1.316,0.074-1.988v-16.688
	l30.996,17.719c28.633,18.594,60.625,27.891,92.625,27.891c32.008,0,64.012-9.305,92.648-27.906l30.965-17.754v16.738
	C-1769.055,1180.645-1768.98,1181.461-1768.965,1182.289z M-2322.793,1771.691h-88.047v-275.797
	c0-45.973,28.582-92.555,66.48-108.348l21.566-8.984V1771.691z M-1543.723,1771.691h-697.492v-427.125l75.461-31.441v223.094
	c0,22.527,18.266,40.789,40.789,40.789h100.008c22.523,0,40.789-18.262,40.789-40.789s-18.266-40.789-40.789-40.789h-59.219
	v-216.297l2.328-0.973c10.164-4.238,19.398-9.926,27.531-16.734c43.27,40.75,100.605,63.945,161.844,63.945
	c61.105,0,118.383-23.137,161.645-63.766c8.09,6.738,17.258,12.359,27.34,16.559l2.727,1.133v216.129h-59.219
	c-22.523,0-40.789,18.262-40.789,40.789s18.266,40.789,40.789,40.789h100.008c22.523,0,40.789-18.262,40.789-40.789v-222.93
	l75.461,31.441v426.953l0,0V1771.691z M-1374.496,1771.691h-87.648v-392.969l21.168,8.824
	c37.898,15.789,66.477,62.371,66.477,108.348v275.797H-1374.496z M-1156.355,1771.691h-16.316v-497.559h16.316V1771.691z
	 M-1023.664,1192.555h-281.703v-138.754h281.703V1192.555z"/>
<path fill="#010101" d="M452.09,1142.09l-75.801-96.781l32.133-99.852c3.723-11.57,2.094-24.199-4.449-34.445l-54.469-85.305
	l24.117-74.125c3.629-11.16,2.281-23.34-3.707-33.43l-47.43-79.953l19.234-81.066c2.609-10.984,0.547-22.559-5.695-31.965
	l-52.273-78.789l37.762-76.352c4.902-9.914,5.566-21.395,1.848-31.809L286.895,236.18l15.289-92.922
	c1.988-12.082-1.559-24.418-9.652-33.598L246.977,58c-7.742-8.781-18.891-13.816-30.598-13.816H41.324
	c-22.523,0-40.789,18.262-40.789,40.789v1249.504c0,22.527,18.266,40.789,40.789,40.789h378.652
	c22.523,0,40.789-18.262,40.789-40.789v-167.234C460.766,1158.125,457.711,1149.27,452.09,1142.09z M82.113,125.762h115.852
	l20.578,23.344l-13.855,84.246c-1.121,6.828-0.488,13.832,1.836,20.352l34.195,95.68l-40.504,81.895
	c-6.445,13.035-5.465,28.516,2.574,40.633l55.48,83.617l-18.953,79.891c-2.441,10.293-0.793,21.129,4.605,30.23l46.426,78.254
	l-24.371,74.902c-3.773,11.605-2.152,24.285,4.41,34.57l54.508,85.371l-19.773,61.441H82.113V125.762z M379.188,1293.688H82.113
	v-211.934h219.098l77.977,99.563V1293.688z"/>
<polygon fill="#F26450" points="419.977,1163.68 321.074,1037.402 41.324,1037.402 41.324,1330.914 419.977,1330.914 "/>
<path fill="#010101" d="M242.895,1240.773h-93.816c-22.523,0-40.789-18.262-40.789-40.789s18.266-40.789,40.789-40.789h93.816
	c22.523,0,40.789,18.262,40.789,40.789S265.418,1240.773,242.895,1240.773z"/>
<polyline fill="#DFDDE1" points="369.594,932.961 334.836,1040.965 41.324,1040.965 41.324,84.973 216.383,84.973 261.934,136.641 
	244.934,239.973 284.949,351.945 236.777,449.355 302.039,547.723 278.996,644.832 334.836,738.957 304.758,831.414 
	369.594,932.961 "/>
<rect x="38.054" y="1019.121" fill="#010101" width="317.671" height="23.846"/>
<path fill="#FABAA1" stroke="#000000" stroke-width="40" stroke-miterlimit="10" d="M834.93,1202.238v79.457
	c0,26.547-15.961,50.488-40.469,60.703l-262.512,109.379c-55.461,23.109-91.582,85.918-91.582,146v316.586h1117.926v-316.586
	c0-60.078-36.125-122.895-91.582-146l-262.512-109.379c-24.508-10.211-40.465-34.156-40.465-60.703v-79.457H834.93z"/>
<path fill="#ECEBEC" stroke="#000000" stroke-width="40" stroke-miterlimit="10" d="M1466.707,1451.777l-262.512-109.379
	c-20.301-8.457-34.703-26.352-39.059-47.332c-34.684,54.906-95.867,91.402-165.609,91.402c-69.945,0-131.289-36.711-165.914-91.883
	c-4.234,21.188-18.699,39.289-39.152,47.813l-262.512,109.379c-55.461,23.109-91.582,85.918-91.582,146v316.586h1117.926v-316.586
	C1558.293,1537.695,1522.164,1474.879,1466.707,1451.777z"/>
<path fill="#010101" stroke="#000000" stroke-width="40" stroke-miterlimit="10" d="M1000.066,1678.895h-0.535
	c-22.523,0-40.789-18.262-40.789-40.789s18.266-40.789,40.789-40.789h0.535c22.523,0,40.789,18.262,40.789,40.789
	S1022.59,1678.895,1000.066,1678.895z"/>
<path fill="#010101" stroke="#000000" stroke-width="40" stroke-miterlimit="10" d="M999.531,1678.895h-0.535
	c-22.523,0-40.789-18.262-40.789-40.789s18.266-40.789,40.789-40.789h0.535c22.523,0,40.789,18.262,40.789,40.789
	S1022.055,1678.895,999.531,1678.895z"/>
<path fill="#FABAA1" stroke="#000000" stroke-width="40" stroke-miterlimit="10" d="M1377.982,730.831V611.979
	c0-202.348-164.039-366.383-366.383-366.383c-202.352,0-366.383,164.035-366.383,366.383h-1.438v118.852
	c-50.461,0-91.367,40.906-91.367,91.367s40.906,91.367,91.367,91.367v68.212c4.398,57.523,32.449,108.738,74.926,136.789
	l220.867,126.266c44.352,29.289,98.277,29.289,142.629,0l220.207-126.266c42.473-28.051,71.18-79.266,75.582-136.789v-68.212
	c50.461,0,91.367-40.906,91.367-91.367C1469.35,771.741,1428.439,730.831,1377.982,730.831z"/>
<path fill="#010101" d="M1148.09,875.691c-25.137,0-45.594-20.453-45.594-45.59c0-25.141,20.457-45.594,45.594-45.594
	s45.59,20.453,45.59,45.594C1193.676,855.238,1173.227,875.691,1148.09,875.691z"/>
<path fill="#010101" d="M850.574,875.691c-25.137,0-45.59-20.453-45.59-45.59c0-25.141,20.453-45.594,45.59-45.594
	s45.594,20.453,45.594,45.594C896.168,855.238,875.711,875.691,850.574,875.691z"/>
<path fill="#010101" d="M999.504,1098.121c-44.469,0-80.648-36.18-80.648-80.648c0-22.527,18.266-40.789,40.789-40.789h79.719
	c22.523,0,40.789,18.262,40.789,40.789C1080.145,1061.945,1043.969,1098.121,999.504,1098.121z"/>
<path fill="#F7D04A" stroke="#000000" stroke-width="40" stroke-miterlimit="10" d="M1458.317,515.187h-25.652
	c-6.93-107.379-53.445-207.306-131.961-282.663c-57.941-55.615-128.91-93.562-205.875-111.086v-60.77
	c0-9.104-6.633-16.485-14.816-16.485H920.001c-8.184,0-14.816,7.381-14.816,16.485v59.042
	c-80.008,16.674-153.859,55.297-213.781,112.809c-78.512,75.364-125.031,175.287-131.961,282.663h-17.75
	c-8.188,0-14.816,6.562-14.816,14.657v82.077c0,8.1,6.633,14.657,14.816,14.657h916.617c8.184,0,14.816-6.562,14.816-14.657V529.84
	C1473.134,521.749,1466.501,515.187,1458.317,515.187z"/>
<path fill="#010101" d="M724.024,412.249c-0.617,0-1.243-0.021-1.868-0.064c-14.742-1.017-25.863-13.792-24.849-28.53
	c2.941-42.547,22.691-82.255,55.625-111.81c24.68-22.146,55.309-37.279,88.583-43.761c14.485-2.836,28.545,6.641,31.374,21.142
	c2.828,14.503-6.641,28.551-21.142,31.374c-23.786,4.634-45.596,15.377-63.073,31.064c-22.522,20.214-36.014,47.089-37.987,75.676
	C749.713,401.452,737.964,412.249,724.024,412.249z"/>
<polygon fill="#123458" stroke="#000000" stroke-width="40" stroke-miterlimit="10" points="1232.027,1353.996 1232.027,1638.105 
	767.035,1638.105 767.035,1353.828 609.996,1419.262 609.996,1914.363 1389.066,1914.363 1389.066,1419.422 "/>
<rect x="1545.863" y="1114.895" fill="#123458" stroke="#000000" stroke-width="40" stroke-miterlimit="10" width="363.266" height="220.344"/>
<path fill="#010101" d="M1866.916,1943.152c0,6.627-5.373,12-12,12H147c-6.627,0-12-5.373-12-12v-33c0-6.627,5.373-12,12-12
	h1707.916c6.627,0,12,5.373,12,12V1943.152z"/>
</svg>
