<?xml version="1.0" encoding="utf-8"?>
<!-- Generator: Adobe Illustrator 16.0.0, SVG Export Plug-In . SVG Version: 6.00 Build 0)  -->
<!DOCTYPE svg PUBLIC "-//W3C//DTD SVG 1.1//EN" "http://www.w3.org/Graphics/SVG/1.1/DTD/svg11.dtd">
<svg version="1.1" id="Layer_1" xmlns="http://www.w3.org/2000/svg" xmlns:xlink="http://www.w3.org/1999/xlink" x="0px" y="0px"
	 width="1999px" height="2000.001px" viewBox="0 0 1999 2000.001" enable-background="new 0 0 1999 2000.001" xml:space="preserve">
<path fill="#010101" d="M506.245,1279.359c0-135.859-110.542-246.386-246.411-246.386c-135.87,0-246.407,110.534-246.407,246.386
	c0,80.836,41.785,158.817,108.161,204.914v39.643c0,76.072,62.041,137.957,138.295,137.957c76.253,0,138.294-61.885,138.294-137.957
	v-39.268C464.467,1438.517,506.245,1360.317,506.245,1279.359z"/>
<path fill="#FABAA1" d="M835.068,1246.96v79.468c0,26.551-15.965,50.496-40.473,60.711l-262.554,109.398
	c-55.469,23.113-91.598,85.934-91.598,146.023v316.636h1118.111v-316.636c0-60.09-36.133-122.914-91.598-146.023l-262.554-109.398
	c-24.512-10.211-40.473-34.164-40.473-60.711v-79.468H835.068z"/>
<g>
	<g>
		<path fill="#F9A03C" stroke="#000000" stroke-width="40" stroke-miterlimit="10" d="M1466.954,1496.542L1204.4,1387.143
			c-20.305-8.457-34.711-26.355-39.066-47.34c-34.688,54.914-95.883,91.418-165.637,91.418c-69.957,0-131.309-36.715-165.941-91.898
			c-4.234,21.188-18.699,39.293-39.16,47.82l-262.554,109.398c-55.469,23.113-91.598,85.934-91.598,146.023v316.636h1118.107
			v-316.64C1558.552,1582.479,1522.419,1519.655,1466.954,1496.542z"/>
		<path fill="#F9A03C" stroke="#000000" stroke-width="40" stroke-miterlimit="10" d="M833.752,1339.328
			c-4.234,21.188-18.699,39.292-39.16,47.819l-6.355,2.648l76.148,213.289l135.309-171.859
			C929.736,1431.225,868.385,1394.51,833.752,1339.328z"/>
		<path fill="#F9A03C" stroke="#000000" stroke-width="40" stroke-miterlimit="10" d="M1165.65,1339.328
			c4.238,21.188,18.699,39.292,39.16,47.819l6.355,2.648l-76.148,213.289l-135.309-171.859
			C1069.662,1431.225,1131.014,1394.51,1165.65,1339.328z"/>
	</g>
	<path fill="#FABAA1" stroke="#000000" stroke-width="40" stroke-miterlimit="10" d="M1366.661,778.578v-118.87
		c0-202.383-164.065-366.445-366.444-366.445c-202.383,0-366.444,164.066-366.444,366.445h-1.438v118.87
		c-50.469,0-91.383,40.914-91.383,91.383s40.914,91.383,91.383,91.383v68.223c4.398,57.535,32.453,108.758,74.938,136.813
		l220.905,126.288c44.355,29.297,98.293,29.297,142.652,0l220.242-126.288c42.479-28.055,71.191-79.277,75.594-136.813v-68.223
		c50.468,0,91.382-40.914,91.382-91.383C1458.04,819.484,1417.13,778.578,1366.661,778.578z"/>
	<path fill="#F9A03C" stroke="#000000" stroke-width="40" stroke-miterlimit="10" d="M1448.88,559.989h-25.152
		c-6.797-106.434-52.405-205.477-129.387-280.175c-56.812-55.129-126.397-92.738-201.866-110.105v-60.23
		c0-9.023-6.504-16.34-14.527-16.34H921.049c-8.023,0-14.527,7.316-14.527,16.34v58.523
		c-78.449,16.527-150.863,54.805-209.612,111.813c-76.98,74.699-122.598,173.742-129.391,280.175h-17.402
		c-8.023,0-14.527,6.504-14.527,14.527v81.355c0,8.023,6.504,14.527,14.527,14.527h898.768c8.023,0,14.527-6.504,14.527-14.527
		v-81.355C1463.411,566.493,1456.907,559.989,1448.88,559.989z"/>
</g>
<polygon fill="#ECEBEC" points="1825.816,217.22 1782.98,217.22 1740.145,217.22 1695.271,371.227 1782.98,454.856 
	1870.691,371.227 "/>
<path fill="#010101" d="M41.332,2000.001h-0.535C18.27,2000.001,0,1981.736,0,1959.205s18.27-40.797,40.797-40.797h0.535
	c22.527,0,40.797,18.266,40.797,40.797S63.859,2000.001,41.332,2000.001z"/>
<path fill="#010101" d="M1958.203,2000.001h-0.535c-22.527,0-40.797-18.266-40.797-40.797s18.27-40.797,40.797-40.797h0.535
	c22.527,0,40.797,18.266,40.797,40.797C1998.996,1981.736,1980.73,2000.001,1958.203,2000.001z"/>
<path fill="#010101" d="M999.67,1142.832c-44.477,0-80.66-36.188-80.66-80.66c0-22.531,18.27-40.797,40.797-40.797h79.73
	c22.527,0,40.797,18.266,40.797,40.797C1080.33,1106.644,1044.146,1142.832,999.67,1142.832z"/>
<path fill="#010101" d="M1157.951,1824.576h-0.535c-22.527,0-40.797-18.265-40.797-40.796s18.27-40.797,40.797-40.797h0.535
	c22.527,0,40.797,18.266,40.797,40.797S1180.479,1824.576,1157.951,1824.576z"/>
<path fill="#010101" d="M1442.985,1824.576h-153.058c-22.527,0-40.797-18.265-40.797-40.796s18.27-40.797,40.797-40.797h153.058
	c22.527,0,40.797,18.266,40.797,40.797S1465.513,1824.576,1442.985,1824.576z"/>
<path fill="#010101" d="M840.596,1824.576h-0.535c-22.527,0-40.797-18.265-40.797-40.796s18.27-40.797,40.797-40.797h0.535
	c22.527,0,40.797,18.266,40.797,40.797S863.123,1824.576,840.596,1824.576z"/>
<path fill="#010101" d="M708.077,1824.576H555.019c-22.527,0-40.797-18.265-40.797-40.796s18.27-40.797,40.797-40.797h153.059
	c22.526,0,40.796,18.266,40.796,40.797S730.607,1824.576,708.077,1824.576z"/>
<path fill="#010101" d="M269.91,986c-8.669,0-15.7-7.028-15.7-15.699v-21.207c0-8.671,7.031-15.7,15.7-15.7s15.7,7.029,15.7,15.7
	V970.3C285.609,978.971,278.58,986,269.91,986z"/>
<path fill="#010101" d="M48.566,1097.697c-4.019,0-8.034-1.532-11.099-4.598l-15.003-14.996c-6.132-6.13-6.133-16.069-0.005-22.204
	c6.127-6.132,16.07-6.134,22.203-0.003l15.004,14.996c6.132,6.131,6.133,16.069,0.004,22.204
	C56.604,1096.162,52.583,1097.697,48.566,1097.697z"/>
<path fill="#010101" d="M471.079,1082.103c-4.02,0-8.036-1.534-11.101-4.6c-6.13-6.131-6.13-16.07,0.001-22.202l14.999-14.997
	c6.13-6.131,16.073-6.129,22.203,0c6.13,6.131,6.13,16.07-0.001,22.202l-14.999,14.997
	C479.113,1080.57,475.095,1082.103,471.079,1082.103z"/>
<path fill="#010101" d="M-223.808,1285.728c0-143.125-116.453-259.563-259.589-259.563s-259.585,116.445-259.585,259.563
	c0,85.159,44.02,167.312,113.945,215.874v41.762c0,80.141,65.359,145.336,145.691,145.336c80.332,0,145.691-65.195,145.691-145.336
	v-41.367C-267.82,1453.399-223.808,1371.016-223.808,1285.728z M-483.269,1361.997l-22.078-59.874l20.121-16.281l23.676,17.258
	L-483.269,1361.997z M-483.347,1607.11c-35.344,0-64.098-28.594-64.098-63.742v-23.074h128.195v23.074
	C-419.25,1578.512-448.003,1607.11-483.347,1607.11z M-389.687,1438.684h-34.895l77.258-209.546
	c7.793-21.141-3.023-44.598-24.168-52.391c-21.125-7.793-44.594,3.027-52.391,24.164l-8.332,22.602l-30.285-22.074
	c-14.93-10.883-35.324-10.371-49.695,1.258l-22.965,18.586l-7.484-20.309c-7.797-21.145-31.242-31.961-52.394-24.164
	c-21.141,7.797-31.957,31.25-24.164,52.391l77.242,209.487h-34.398c-51.957-32.824-85.035-91.789-85.035-152.957
	c0-98.132,79.847-177.972,177.996-177.972c98.148,0,177.996,79.836,177.996,177.972
	C-305.402,1346.805-338.179,1405.758-389.687,1438.684z"/>
<path fill="#010101" d="M168.015,679.493c-8.152,0-14.59-2.348-17.766-3.789c-7.781-3.527-32.457-18.16-23.371-58.203
	l44.304-195.371h-55.078c-21.906,0-40.723-10.324-50.34-27.617c-9.613-17.289-8.449-38.719,3.109-57.324l192.55-309.625
	c21.547-34.668,49.347-27.949,57.347-25.066c8.008,2.883,33.699,15.438,28.188,55.871l-26.887,197.039h73.078
	c22.531,0,41.438,10.691,50.563,28.602c9.125,17.906,6.672,39.477-6.566,57.707l-227.707,313.23
	C195.16,674.583,179.796,679.493,168.015,679.493z M162.875,340.54h59.395c12.406,0,24.137,5.645,31.879,15.339
	c7.738,9.691,10.648,22.379,7.906,34.48l-17.613,77.684l95.257-131.035h-66.371c-11.781,0-22.988-5.094-30.734-13.969
	c-7.742-8.879-11.281-20.668-9.684-32.344l10.969-80.414L162.875,340.54z"/>
<path fill="#010101" d="M1148.279,920.359c25.141,0,45.598-20.457,45.598-45.598c0-25.148-20.457-45.602-45.598-45.602
	s-45.602,20.453-45.602,45.602C1102.682,899.902,1123.135,920.359,1148.279,920.359z"/>
<path fill="#010101" d="M850.717,829.16c-25.141,0-45.598,20.453-45.598,45.602c0,25.141,20.453,45.598,45.598,45.598
	c25.141,0,45.602-20.453,45.602-45.598S875.857,829.16,850.717,829.16z"/>
<path fill="#010101" d="M4105.684,1918.408h-226.335v-275.839c0-79.523-47.992-155.055-116.699-183.684l-262.554-109.395
	c-9.336-3.887-15.367-12.938-15.367-23.055v-63.522l106.641-61.145c0.742-0.43,1.473-0.879,2.188-1.352
	c53.395-35.262,88.453-97.969,93.785-167.746c0.082-1.031,0.117-2.074,0.117-3.109v-33.867
	c52.976-17.23,91.378-67.086,91.378-125.738c0-58.651-38.402-108.503-91.378-125.737v-33.027h41.425
	c30.508,0,55.328-24.816,55.328-55.324v-81.355c0-26.48-18.699-48.672-43.59-54.07c-14.714-102.398-62.874-197.14-137.87-269.909
	c-53.691-52.098-118.672-90.461-189.477-112.117V109.47c0-31.508-24.82-57.133-55.328-57.133h-156.898
	c-30.508,0-55.328,25.633-55.328,57.133v26.645c-73.831,21.168-141.479,60.324-197.226,114.414
	c-75.582,73.343-123.91,169.003-138.207,272.323c-20.746,7.988-35.5,28.129-35.5,51.652v81.355c0,30.508,24.82,55.324,55.328,55.324
	h41.426v33.027c-52.977,17.23-91.379,67.085-91.379,125.737s38.402,108.504,91.379,125.738v33.867c0,1.035,0.039,2.078,0.117,3.109
	c5.355,70.063,40.172,132.77,93.129,167.746c0.73,0.484,1.473,0.941,2.234,1.375l107.25,61.313v63.332
	c0,10.112-6.035,19.159-15.367,23.055l-262.555,109.397c-68.711,28.629-116.699,104.164-116.699,183.68V1918.4h-226.343
	c-22.527,0-40.797,18.266-40.797,40.797s18.27,40.797,40.797,40.797h1652.375c22.527,0,40.797-18.266,40.797-40.797
	S4128.215,1918.408,4105.684,1918.408z M2856.382,599.817c17.363-3.852,30.676-18.781,31.848-37.227
	c6.145-96.16,47.723-186.188,117.09-253.492c52.733-51.168,118.296-86.148,189.616-101.176
	c18.875-3.977,32.383-20.629,32.383-39.918v-34.07h104.363v35.777c0,19.008,13.125,35.492,31.645,39.754
	c68.555,15.781,131.699,50.227,182.605,99.629c69.367,67.304,110.945,157.328,117.09,253.492
	c1.348,21.105,18.578,37.613,39.598,38.18v28.836h-846.237V599.817z M3008.749,1131.664
	c-31.172-21.109-51.867-59.707-55.621-103.742v-66.582c0-22.531-18.27-40.797-40.797-40.797c-27.891,0-50.582-22.695-50.582-50.582
	s22.695-50.582,50.582-50.582c22.527,0,40.797-18.266,40.797-40.797v-67.383h652.733v67.383c0,22.531,18.27,40.797,40.797,40.797
	c27.891,0,50.582,22.695,50.582,50.582s-22.695,50.582-50.582,50.582c-22.527,0-40.797,18.266-40.797,40.797v66.574
	c-3.703,43.141-25.156,82.676-56.301,103.766l-219.031,125.59c-0.742,0.43-1.473,0.879-2.188,1.352
	c-30.59,20.199-67.098,20.199-97.688,0c-0.73-0.48-1.473-0.941-2.234-1.375L3008.749,1131.664z M3238.904,1918.408h-477.663
	v-275.839c0-45.98,28.586-92.57,66.492-108.367l216.534-90.223l61.703,172.824c4.992,13.984,17.188,24.148,31.84,26.547
	c2.199,0.359,4.398,0.535,6.586,0.535c12.383,0,24.242-5.645,32.051-15.559l62.457-79.328v369.413l0,0V1918.408z M3118.205,1408.413
	c24.949,23.395,54.547,40.973,86.863,51.652l-47.074,59.793L3118.205,1408.413z M3155.791,1328.42
	c0.012-0.664,0.074-1.316,0.074-1.988v-16.691l31,17.723c28.641,18.598,60.637,27.895,92.641,27.895
	c32.012,0,64.02-9.305,92.664-27.914l30.969-17.758v16.742c0,0.832,0.074,1.648,0.09,2.473
	c-29.262,38.719-74.496,61.52-123.527,61.52C3230.424,1390.428,3185.037,1367.444,3155.791,1328.42z M3441.205,1408.389
	l-39.797,111.465l-47.086-59.809C3386.639,1449.366,3416.248,1431.788,3441.205,1408.389z M3797.759,1918.408h-477.265v-369.425
	l62.461,79.336c7.809,9.918,19.668,15.559,32.051,15.559c2.184,0,4.387-0.176,6.586-0.535c14.652-2.395,26.848-12.563,31.84-26.547
	l61.652-172.676l216.187,90.078c37.902,15.793,66.488,62.383,66.488,108.367V1918.408z"/>
<path fill="#010101" d="M1020.13,350.258h-5.173l14.152-17.458c11.169-13.78,9.05-34.006-4.728-45.172
	c-13.773-11.167-34.009-9.051-45.172,4.726l-56.576,69.799c-7.798,9.623-9.367,22.868-4.041,34.043
	c5.326,11.176,16.606,18.298,28.991,18.298h2.617l-20.927,24.36c-11.56,13.455-10.016,33.733,3.433,45.292
	c6.064,5.206,13.506,7.756,20.914,7.756c9.038,0,18.025-3.795,24.381-11.19l66.494-77.409c8.177-9.52,10.059-22.929,4.821-34.332
	S1032.679,350.258,1020.13,350.258z"/>
<path fill="#010101" d="M1873.121,743.696h-49.352V472.329l75.066-71.578c11.031-10.516,15.277-26.305,11.016-40.938
	l-44.875-154.003c-5.07-17.41-21.031-29.387-39.168-29.387h-85.672c-18.133,0-34.093,11.973-39.168,29.387l-44.874,154.003
	c-4.262,14.629-0.016,30.422,11.016,40.938l75.062,71.578v271.366h-49.351c-22.527,0-40.797,18.266-40.797,40.797v367.383
	c0,72.199,58.737,130.941,130.94,130.941s130.941-58.738,130.941-130.941V784.492
	C1913.918,761.96,1895.652,743.696,1873.121,743.696z M1770.746,258.017h24.461l29.375,100.8l-41.605,39.672l-41.605-39.668
	L1770.746,258.017z M1832.324,1151.875c0,27.211-22.141,49.352-49.352,49.352s-49.352-22.141-49.352-49.352V825.289h98.699v326.586
	H1832.324z"/>
<path fill="#324A67" d="M1873.121,784.492v367.383c0,49.578-40.563,90.148-90.148,90.148l0,0c-49.577,0-90.147-40.566-90.147-90.148
	V784.492H1873.121L1873.121,784.492z"/>
<path fill="#F05352" d="M222.265,381.336L166.66,626.532c-3.238,14.285,1.16,16.281,9.77,4.434l227.699-313.218
	c8.605-11.848,3.668-21.535-10.98-21.535h-119.82l33.207-243.339c1.973-14.508-2.734-16.199-10.468-3.762L103.52,358.723
	c-7.727,12.438-2.074,22.613,12.578,22.613H222.265z"/>
<path fill="#F9A03C" d="M259.787,1059.712c-120.832,0-218.792,97.938-218.792,218.766c0,82.441,47.383,156.464,114.714,193.769
	h14.211h194.812l0,0c66.887-37.457,113.848-111.668,113.848-193.769C478.579,1157.65,380.622,1059.712,259.787,1059.712z"/>
<path fill="#405A69" d="M364.729,1469.581v63.887c0,57.73-46.957,104.539-104.894,104.539l0,0
	c-57.934,0-104.895-46.809-104.895-104.539v-63.887H364.729z"/>
<path fill="#010101" d="M144.117,1020.382c-3.9-0.967-7.429-3.42-9.667-7.133l-10.955-18.166
	c-4.477-7.425-2.087-17.072,5.337-21.553c7.422-4.478,17.073-2.088,21.551,5.338l10.956,18.166
	c4.477,7.426,2.087,17.072-5.337,21.553C152.288,1020.826,148.016,1021.349,144.117,1020.382z"/>
<path fill="#010101" d="M385.805,1009.376c-3.777,1.376-8.076,1.309-12.005-0.522c-7.858-3.662-11.261-13.001-7.598-20.861
	l8.96-19.226c3.662-7.858,13.004-11.259,20.861-7.599c7.859,3.662,11.261,13.001,7.598,20.861l-8.96,19.226
	C392.83,1005.186,389.579,1008.001,385.805,1009.376z"/>
<path fill="#010101" d="M259.964,1361.994l-22.078-59.873l20.121-16.281l23.676,17.258L259.964,1361.994z M259.886,1607.107
	c-35.344,0-64.098-28.594-64.098-63.742v-23.074h128.194v23.074C323.983,1578.509,295.23,1607.107,259.886,1607.107z
	 M353.545,1438.681h-34.895l77.258-209.545c7.793-21.141-3.023-44.598-24.168-52.391c-21.125-7.793-44.594,3.027-52.391,24.164
	l-8.332,22.602l-30.284-22.074c-14.93-10.883-35.324-10.371-49.695,1.258l-22.965,18.586l-7.484-20.309
	c-7.797-21.145-31.242-31.961-52.394-24.164c-21.141,7.797-31.957,31.25-24.164,52.391l77.242,209.486h-34.398
	c-51.957-32.824-85.035-91.789-85.035-152.957c0-98.131,79.847-177.971,177.996-177.971c98.147,0,177.995,79.836,177.995,177.971
	C437.831,1346.802,405.053,1405.755,353.545,1438.681z"/>
<path fill="#010101" d="M-197.627,491.91c0-143.125-116.453-259.563-259.589-259.563c-143.136,0-259.585,116.445-259.585,259.563
	c0,85.159,44.02,167.312,113.945,215.874v41.762c0,80.141,65.359,145.336,145.691,145.336c80.331,0,145.69-65.195,145.69-145.336
	v-41.367C-241.639,659.581-197.627,577.198-197.627,491.91z"/>
<path fill="#010101" d="M1873.17,1986c0,6.627-5.373,12-12,12H153.254c-6.627,0-12-5.373-12-12v-33c0-6.627,5.373-12,12-12H1861.17
	c6.627,0,12,5.373,12,12V1986z"/>
<path fill="#010101" d="M1186.497,1335.424c0,6.628-5.373,12-12,12h-2.094c-6.627,0-12-5.372-12-12v-83.842c0-6.627,5.373-12,12-12
	h2.094c6.627,0,12,5.373,12,12V1335.424z"/>
<path fill="#010101" d="M840.328,1335.424c0,6.628-5.373,12-12,12h-2.094c-6.627,0-12-5.372-12-12v-83.842c0-6.627,5.373-12,12-12
	h2.094c6.627,0,12,5.373,12,12V1335.424z"/>
</svg>
