<?xml version="1.0" encoding="utf-8"?>
<!-- Generator: Adobe Illustrator 16.0.0, SVG Export Plug-In . SVG Version: 6.00 Build 0)  -->
<!DOCTYPE svg PUBLIC "-//W3C//DTD SVG 1.1//EN" "http://www.w3.org/Graphics/SVG/1.1/DTD/svg11.dtd">
<svg version="1.1" id="Layer_1" xmlns="http://www.w3.org/2000/svg" xmlns:xlink="http://www.w3.org/1999/xlink" x="0px" y="0px"
	 width="2000px" height="1999.847px" viewBox="0 0 2000 1999.847" enable-background="new 0 0 2000 1999.847" xml:space="preserve">
<path fill="#112F50" stroke="#000000" stroke-width="40" stroke-miterlimit="10" d="M338.956,1956.96
	c0,6.288-5.373,11.385-12,11.385h-19.207c-6.627,0-12-5.097-12-11.385v-504.046c0-6.286,5.373-11.384,12-11.384h19.207
	c6.627,0,12,5.098,12,11.384V1956.96z"/>
<path fill="#E04044" stroke="#000000" stroke-width="40" stroke-miterlimit="10" d="M835.415,1246.514v79.5
	c0,26.558-15.969,50.515-40.488,60.733l-262.655,109.441c-55.492,23.125-91.633,85.965-91.633,146.081v316.761h1118.543V1642.27
	c0-60.112-36.148-122.96-91.633-146.081l-262.655-109.441c-24.52-10.215-40.488-34.176-40.488-60.733v-79.5H835.415z"/>
<path fill="#112F50" stroke="#000000" stroke-width="40" stroke-miterlimit="10" d="M1379.209,1959.034v-375.068
	c0-40.938,13.883-78.777,37.133-109.102l-211.456-88.105c-24.52-10.215-40.487-34.175-40.487-60.733l-0.367,146.604
	c0,90.16-73.766,163.93-163.93,163.93l0,0c-90.16,0-163.929-73.766-163.929-163.93l-0.762-146.604
	c0,26.559-15.969,50.515-40.488,60.733l-211.456,88.109c23.25,30.328,37.133,68.164,37.133,109.102v375.068h758.609V1959.034z"/>
<g>
	<path fill="#FABAA1" stroke="#000000" stroke-width="40" stroke-miterlimit="10" d="M1367.209,777.949V659.031
		c0-202.456-164.128-366.584-366.584-366.584c-202.464,0-366.585,164.128-366.585,366.584h-1.438v118.918
		c-50.487,0-91.417,40.93-91.417,91.417c0,50.488,40.93,91.418,91.417,91.418v68.25c4.398,57.559,32.465,108.801,74.969,136.866
		l220.991,126.336c44.375,29.309,98.332,29.309,142.707,0l220.331-126.336c42.495-28.065,71.218-79.308,75.624-136.866v-68.25
		c50.488,0,91.418-40.93,91.418-91.417C1458.627,818.879,1417.697,777.949,1367.209,777.949z"/>
	<path fill="#FABAA1" stroke="#000000" stroke-width="40" stroke-miterlimit="10" d="M1164.397,1246.514v226.104
		c0,90.16-74.132,163.929-164.296,163.929l0,0c-90.16,0-164.69-73.765-164.69-163.929v-226.104"/>
</g>
<g>
	<path fill="#348DCC" stroke="#000000" stroke-width="40" stroke-miterlimit="10" d="M1408.021,618.021l-6.363-134.438h0.039
		l-13.25-172.073c-5.219-67.324-53.702-123.391-119.597-138.191l-268.104-60.227l0,0l-0.082-0.039h-0.039l-268.187,60.266
		c-65.895,14.8-114.417,70.871-119.597,138.191l-13.25,172.073l-6.363,134.438c-4.035,51.784,52.437,86.366,96.636,59.081
		c189.937-117.437,431.573-117.437,621.514,0C1355.58,704.387,1412.014,669.805,1408.021,618.021z"/>
	
		<rect x="739.954" y="1783.555" fill="#348DCC" stroke="#000000" stroke-width="40" stroke-miterlimit="10" width="521.369" height="175.491"/>
</g>
<path fill="#010101" d="M41.348,1999.847h-0.535c-22.543,0-40.813-18.27-40.813-40.813c0-22.539,18.27-40.813,40.813-40.813h0.535
	c22.539,0,40.812,18.27,40.812,40.813C82.156,1981.577,63.887,1999.847,41.348,1999.847z"/>
<path fill="#010101" d="M1958.977,1999.843h-0.535c-22.539,0-40.813-18.27-40.813-40.813s18.27-40.813,40.813-40.813h0.535
	c22.539,0,40.813,18.27,40.813,40.813S1981.516,1999.843,1958.977,1999.843z"/>
<path fill="#010101" d="M1148.745,919.784c-25.155,0-45.62-20.465-45.62-45.617c0-25.155,20.465-45.62,45.62-45.62
	c25.156,0,45.621,20.465,45.621,45.62C1194.358,899.323,1173.897,919.784,1148.745,919.784z"/>
<path fill="#010101" d="M851.066,919.784c-25.155,0-45.62-20.465-45.62-45.617c0-25.155,20.465-45.62,45.62-45.62
	c25.156,0,45.621,20.465,45.621,45.62C896.688,899.323,876.223,919.784,851.066,919.784z"/>
<path fill="#010101" d="M1000.074,1142.342c-44.492,0-80.691-36.198-80.691-80.69c0-22.539,18.27-40.813,40.813-40.813h79.762
	c22.539,0,40.813,18.27,40.813,40.813C1080.77,1106.144,1044.57,1142.342,1000.074,1142.342z"/>
<path fill="#010101" d="M1860.855,1617.341c-5.344,0-10.715-1.047-15.809-3.188c-13.89-5.84-23.433-18.859-24.823-33.863
	c-1.754-18.961-17.465-33.262-36.539-33.262s-34.785,14.301-36.539,33.262c-1.387,15.008-10.934,28.023-24.824,33.863
	s-29.867,3.551-41.563-5.957c-38.335-31.172-60.319-77.352-60.319-126.691c0-48.367,21-93.262,57.136-124.054V975.026
	c-36.132-30.797-57.136-75.695-57.136-124.054c0-49.34,21.984-95.52,60.319-126.691c11.691-9.508,27.668-11.797,41.563-5.957
	c13.891,5.84,23.434,18.859,24.824,33.863c1.754,18.965,17.465,33.266,36.539,33.266s34.785-14.301,36.539-33.266
	c1.387-15.008,10.934-28.027,24.823-33.863c13.891-5.832,29.875-3.547,41.563,5.957c38.336,31.172,60.32,77.352,60.32,126.691
	c0,48.362-21,93.257-57.137,124.054v382.425c36.137,30.796,57.137,75.687,57.137,124.054c0,49.344-21.984,95.523-60.32,126.691
	C1879.207,1614.216,1870.086,1617.341,1860.855,1617.341z M1783.688,1465.403c30.949,0,59.144,11.684,80.249,31.094
	c0.91-4.898,1.375-9.914,1.375-15c0-28.148-14.25-53.961-38.125-69.047c-11.835-7.48-19.011-20.5-19.011-34.504V954.511
	c0-14,7.176-27.02,19.011-34.504c23.875-15.09,38.125-40.898,38.125-69.046c0-5.086-0.469-10.102-1.375-15
	c-21.104,19.41-49.3,31.094-80.249,31.094s-59.145-11.684-80.25-31.094c-0.91,4.898-1.375,9.914-1.375,15
	c0,28.147,14.254,53.96,38.125,69.046c11.832,7.48,19.012,20.5,19.012,34.504v423.439c0,14-7.176,27.02-19.012,34.504
	c-23.875,15.086-38.125,40.898-38.125,69.047c0,5.086,0.469,10.102,1.375,15C1724.548,1477.087,1752.743,1465.403,1783.688,1465.403
	z"/>
<path fill="#010101" d="M1744.86,538.696c-14.895,0-30.098-1.293-45.172-3.84c-13.527-2.289-24.999-11.219-30.534-23.773
	l-24.344-55.215c-3.887-2.086-7.711-4.293-11.453-6.613l-60.012,6.527c-13.641,1.473-27.07-3.973-35.816-14.508
	c-19.461-23.445-34.688-49.777-45.254-78.261c-4.766-12.852-2.766-27.238,5.336-38.301l35.609-48.64
	c-0.078-2.297-0.113-4.574-0.113-6.832c0-2.195,0.035-4.406,0.105-6.633l-35.602-48.637c-8.098-11.059-10.102-25.449-5.336-38.301
	c10.566-28.484,25.793-54.812,45.254-78.261c8.746-10.543,22.199-16.004,35.816-14.508l59.727,6.492
	c3.879-2.406,7.832-4.691,11.855-6.852l24.23-54.945c5.535-12.555,17.012-21.488,30.534-23.773c30.137-5.098,60.211-5.098,90.344,0
	c13.523,2.289,25,11.219,30.535,23.773l24.229,54.945c4.023,2.16,7.984,4.445,11.855,6.852l59.723-6.492
	c13.629-1.473,27.066,3.969,35.813,14.504c19.465,23.445,34.691,49.777,45.258,78.265c4.766,12.852,2.766,27.238-5.336,38.301
	l-35.602,48.637c0.074,2.227,0.109,4.441,0.109,6.633c0,2.258-0.035,4.535-0.113,6.832l35.609,48.64
	c8.098,11.059,10.102,25.449,5.336,38.301c-10.566,28.488-25.793,54.816-45.258,78.265c-8.746,10.539-22.207,15.992-35.813,14.504
	l-60.012-6.527c-3.742,2.316-7.566,4.527-11.453,6.613l-24.343,55.215c-5.535,12.555-17.008,21.488-30.535,23.773
	C1774.954,537.399,1759.755,538.696,1744.86,538.696z M1734.407,456.767c7.012,0.402,13.887,0.402,20.898,0l20.93-47.469
	c4.113-9.332,11.578-16.785,20.914-20.894c8.719-3.832,17.008-8.621,24.637-14.227c8.23-6.043,18.422-8.785,28.578-7.684
	l51.608,5.613c3.824-5.828,7.309-11.852,10.453-18.063l-30.613-41.824c-6.027-8.23-8.754-18.422-7.641-28.563
	c0.544-4.93,0.817-9.781,0.817-14.426c0-4.605-0.27-9.414-0.801-14.297c-1.102-10.125,1.625-20.297,7.645-28.516l30.593-41.793
	c-3.14-6.207-6.633-12.234-10.452-18.063l-51.363,5.586c-10.184,1.105-20.398-1.652-28.633-7.726
	c-7.711-5.684-16.094-10.535-24.914-14.402c-9.352-4.102-16.824-11.563-20.94-20.906l-20.816-47.211
	c-7.016-0.402-13.887-0.402-20.902,0l-20.816,47.211c-4.117,9.344-11.59,16.801-20.941,20.906
	c-8.824,3.871-17.207,8.719-24.914,14.402c-8.234,6.074-18.449,8.832-28.633,7.726l-51.363-5.586
	c-3.82,5.828-7.309,11.855-10.453,18.063l30.594,41.793c6.02,8.223,8.746,18.398,7.645,28.527
	c-0.531,4.859-0.801,9.668-0.801,14.285c0,4.645,0.273,9.496,0.816,14.426c1.113,10.137-1.613,20.328-7.641,28.563l-30.613,41.824
	c3.141,6.207,6.633,12.234,10.453,18.063l51.609-5.613c10.172-1.102,20.348,1.637,28.578,7.684
	c7.633,5.613,15.922,10.395,24.637,14.227c9.336,4.105,16.801,11.562,20.914,20.894L1734.407,456.767z M1744.86,381.259
	c-61.773,0-112.026-50.253-112.026-112.027s50.253-112.027,112.026-112.027s112.027,50.253,112.027,112.027
	S1806.63,381.259,1744.86,381.259z M1744.86,238.826c-16.766,0-30.406,13.641-30.406,30.406s13.641,30.406,30.406,30.406
	s30.406-13.641,30.406-30.406S1761.618,238.826,1744.86,238.826z"/>
<path fill="#010101" d="M4002.407,1845.976H3775.99v-275.948c0-79.55-48.012-155.112-116.75-183.753l-262.655-109.437
	c-9.336-3.891-15.375-12.941-15.375-23.063v-63.551l106.68-61.168c0.742-0.426,1.473-0.879,2.191-1.352
	c53.413-35.273,88.491-98.007,93.827-167.812c0.082-1.031,0.117-2.074,0.117-3.109v-33.883c53-17.238,91.414-67.109,91.414-125.784
	c0-58.676-38.418-108.547-91.414-125.785v-37.754c27.828-21.23,43.25-54.823,40.738-90.265l-6.25-132.055
	c0-1.016-0.039-2.035-0.117-3.059l-13.254-172.093c-6.648-85.75-67.465-156.019-151.343-174.855L3186.805,1.276
	c-6.219-1.59-12.84-1.703-19.125-0.289l-268.183,60.269c-83.926,18.852-144.745,89.128-151.347,174.875l-13.25,172.077
	c-0.027,0.402-0.059,0.805-0.074,1.203l-6.332,133.895c-2.484,34.84,12.355,67.906,39.297,89.194v38.84
	c-53,17.238-91.414,67.109-91.414,125.785c0,58.675,38.418,108.546,91.414,125.784v33.883c0,1.035,0.039,2.078,0.117,3.109
	c5.359,70.09,40.188,132.82,93.167,167.812c0.73,0.48,1.477,0.938,2.238,1.375l107.289,61.336v63.355
	c0,10.117-6.035,19.168-15.375,23.063l-262.659,109.44c-68.738,28.645-116.746,104.203-116.746,183.75v275.947h-42.359v-400.033
	c117.219-18.102,209.488-112.824,223.754-231.249c30.637-14.582,51.863-45.852,51.863-81.984c0-50.031-40.707-90.734-90.734-90.734
	h-451.389c-50.031,0-90.734,40.707-90.734,90.738c0,36.129,21.223,67.391,51.863,81.973
	c14.254,118.437,106.531,213.155,223.757,231.253v400.021h-102.468c-22.539,0-40.813,18.27-40.813,40.813
	s18.27,40.813,40.812,40.813h1653.033c22.538,0,40.812-18.27,40.812-40.813S4024.949,1845.976,4002.407,1845.976z
	 M2312.363,1223.342h108.319c22.539,0,40.813-18.27,40.813-40.813c0-22.539-18.27-40.813-40.813-40.813h-150.339
	c-0.949,0-1.883,0.078-2.82,0.145c-0.191-0.004-0.375-0.027-0.566-0.027c-4.938,0-9.109-4.172-9.109-9.113
	c0-4.938,4.172-9.109,9.109-9.109h451.396c4.938,0,9.109,4.172,9.109,9.113c0,4.938-4.172,9.109-9.137,9.109
	c-22.539,0-40.813,18.27-40.813,40.813c0,101.929-82.93,184.858-184.858,184.858
	C2404.71,1367.505,2330.957,1305.751,2312.363,1223.342z M2844.435,570.125c-10.641,6.563-20.082,2.215-23.656,0.035
	c-3.59-2.191-11.843-8.648-10.862-21.218c0.03-0.418,0.059-0.828,0.078-1.246l3.699-78.141
	c112.198-55.156,237.162-84.238,362.928-84.238s250.729,29.082,362.932,84.238l3.699,78.137c0.016,0.402,0.043,0.809,0.078,1.207
	c0.973,12.605-7.293,19.066-10.895,21.261c-3.562,2.168-12.999,6.512-23.593-0.027c-99.645-61.612-214.522-94.175-332.218-94.175
	C3058.93,475.962,2944.056,508.532,2844.435,570.125z M2917.388,140.885l259.206-58.25l259.312,58.25
	c48.684,10.938,83.992,51.734,87.848,101.508l10.395,134.944c-112.348-48.27-234.585-73.636-357.526-73.636
	c-122.925,0-245.144,25.363-357.479,73.617l10.391-134.925C2833.364,192.615,2868.665,151.83,2917.388,140.885z M2905.06,1058.925
	c-31.188-21.117-51.887-59.73-55.645-103.785V888.53c0-22.539-18.27-40.813-40.812-40.813c-27.902,0-50.602-22.703-50.602-50.601
	c0-27.898,22.703-50.602,50.602-50.602c22.539,0,40.812-18.27,40.812-40.813v-51.949c13.18-2.176,26.063-6.867,37.918-14.188
	c175.741-108.655,402.847-108.659,578.615,0.016c11.41,7.043,23.781,11.645,36.453,13.918v52.199
	c0,22.539,18.27,40.813,40.812,40.813c27.902,0,50.602,22.703,50.602,50.602c0,27.897-22.703,50.601-50.602,50.601
	c-22.538,0-40.812,18.27-40.812,40.813v66.602c-3.707,43.16-25.164,82.707-56.324,103.805l-219.112,125.64
	c-0.746,0.43-1.473,0.879-2.191,1.352c-30.59,20.211-67.125,20.211-97.723,0c-0.73-0.484-1.473-0.941-2.238-1.375L2905.06,1058.925z
	 M3299.59,1237.021v163.347c0,67.887-55.395,123.117-123.484,123.117c-68.309,0-123.879-55.23-123.879-123.117v-163.296
	l31.008,17.73c28.645,18.604,60.66,27.905,92.676,27.905c32.023,0,64.047-9.308,92.695-27.921L3299.59,1237.021z M2755.791,1845.976
	h-98.344v-275.948c0-45.999,28.598-92.604,66.52-108.409l19.023-7.926c8.41,18.074,12.797,37.719,12.797,58.027v334.256H2755.791
	L2755.791,1845.976z M3396.487,1845.976h-439.729v-93.866h439.729V1845.976L3396.487,1845.976z M3514.401,1511.716v334.26h-36.289
	v-134.679c0-22.539-18.27-40.813-40.813-40.813h-521.354c-22.539,0-40.813,18.27-40.813,40.813v134.679h-37.723v-334.26
	c0-31.262-6.508-61.508-19.019-89.441l152.206-63.418v41.52c0,112.895,92.19,204.741,205.503,204.741
	c113.098,0,205.108-91.847,205.108-204.741v-41.52l152.206,63.418C3520.909,1450.208,3514.401,1480.454,3514.401,1511.716z
	 M3694.365,1845.976h-98.344v-334.26c0-20.309,4.387-39.945,12.801-58.027l19.027,7.926c37.922,15.801,66.52,62.406,66.52,108.409
	v275.952H3694.365L3694.365,1845.976z"/>
<path fill="#010101" d="M216.522,440.673c-94.593,0-163.245-67.375-163.245-160.206c0-124.773,132.905-227.14,138.562-231.433
	c14.59-11.082,34.777-11.082,49.367,0c5.656,4.297,138.562,106.66,138.562,231.433C379.768,373.298,311.116,440.673,216.522,440.673
	z M216.589,135.424c-34.605,33.109-81.687,90.359-81.687,145.046c0,54.285,40.996,78.582,81.625,78.582s81.625-24.301,81.625-78.582
	C298.144,225.471,251.187,168.413,216.589,135.424z"/>
<path fill="#368ACA" d="M338.956,280.467c0,73.125-54.824,119.394-122.434,119.394c-67.609,0-122.437-46.265-122.437-119.394
	c0-105.961,122.433-198.937,122.433-198.937S338.956,174.51,338.956,280.467z"/>
<path fill="#112F50" stroke="#000000" stroke-width="40" stroke-miterlimit="10" d="M542.398,1151.456H316.7H91.005
	c-27.457,0-49.925,22.469-49.925,49.926l0,0c0,27.457,22.469,49.926,49.925,49.926h0.023c0,124.637,101.039,225.671,225.671,225.671
	c124.632,0,225.671-101.038,225.671-225.671h0.023c27.457,0,49.926-22.469,49.926-49.926l0,0
	C592.324,1173.917,569.855,1151.456,542.398,1151.456z"/>
<path fill="#010101" d="M377.248,1213.967h-0.531c-22.538,0-40.812,18.27-40.812,40.813c0,22.539,18.27,40.813,40.812,40.813h0.535
	c22.539,0,40.813-18.27,40.813-40.813C418.061,1232.24,399.787,1213.967,377.248,1213.967z"/>
<path fill="#C9DEE4" d="M1848.984,1377.95V954.511c34.324-21.691,57.137-59.945,57.137-103.546
	c0-38.355-17.652-72.578-45.258-95.031c-3.647,39.434-36.792,70.316-77.179,70.316s-73.531-30.883-77.179-70.316
	c-27.609,22.449-45.258,56.672-45.258,95.031c0,43.601,22.813,81.854,57.137,103.546v423.439
	c-34.324,21.691-57.137,59.945-57.137,103.547c0,38.355,17.652,72.578,45.258,95.031c3.647-39.434,36.792-70.316,77.179-70.316
	s73.526,30.883,77.179,70.316c27.609-22.449,45.258-56.672,45.258-95.031C1906.121,1437.896,1883.309,1399.642,1848.984,1377.95z"/>
<path fill="#E04044" d="M1915.809,269.232c0-6.324-0.371-12.563-1.035-18.707l44.41-60.668
	c-9.035-24.359-22.102-46.761-38.391-66.39l-74.582,8.109c-10.117-7.461-21.089-13.82-32.738-18.93l-30.241-68.589
	c-12.48-2.109-25.285-3.27-38.367-3.27s-25.887,1.16-38.367,3.27l-30.246,68.593c-11.648,5.109-22.62,11.469-32.738,18.93
	l-74.581-8.109c-16.293,19.629-29.355,42.031-38.391,66.39l44.41,60.668c-0.668,6.145-1.035,12.383-1.035,18.707
	c0,6.383,0.379,12.676,1.063,18.879l-44.438,60.699c9.035,24.359,22.102,46.762,38.391,66.39l74.832-8.137
	c10.016,7.359,20.867,13.641,32.375,18.699l30.354,68.844c12.48,2.109,25.281,3.27,38.367,3.27s25.887-1.16,38.367-3.27
	l30.355-68.844c11.511-5.063,22.358-11.34,32.378-18.699l74.832,8.137c16.293-19.628,29.355-42.031,38.391-66.39l-44.426-60.695
	C1915.43,281.912,1915.809,275.619,1915.809,269.232z M1744.856,340.447c-39.336,0-71.214-31.886-71.214-71.214
	c0-39.332,31.886-71.215,71.214-71.215s71.214,31.887,71.214,71.215C1816.075,308.568,1784.188,340.447,1744.856,340.447z"/>
<path fill="#010101" d="M-593.593,1918.226H-820.01v-275.948c0-79.55-48.012-155.112-116.75-183.753l-262.655-109.437
	c-9.336-3.891-15.375-12.941-15.375-23.063v-63.551l106.68-61.168c0.742-0.426,1.473-0.879,2.191-1.352
	c53.413-35.273,88.491-98.007,93.827-167.812c0.082-1.031,0.117-2.074,0.117-3.109v-33.883c53-17.238,91.414-67.109,91.414-125.784
	c0-58.676-38.418-108.547-91.414-125.785v-37.754c27.828-21.23,43.25-54.823,40.738-90.265l-6.25-132.055
	c0-1.016-0.039-2.035-0.117-3.059l-13.254-172.093c-6.648-85.75-67.465-156.019-151.343-174.855l-266.995-59.976
	c-6.219-1.59-12.84-1.703-19.125-0.289l-268.183,60.269c-83.926,18.852-144.745,89.128-151.347,174.875l-13.25,172.077
	c-0.027,0.402-0.059,0.805-0.074,1.203l-6.332,133.895c-2.484,34.84,12.355,67.906,39.297,89.194v38.84
	c-53,17.238-91.414,67.109-91.414,125.785c0,58.675,38.418,108.546,91.414,125.784v33.883c0,1.035,0.039,2.078,0.117,3.109
	c5.359,70.09,40.188,132.82,93.167,167.812c0.73,0.48,1.477,0.938,2.238,1.375l107.289,61.336v63.355
	c0,10.117-6.035,19.168-15.375,23.063l-262.659,109.44c-68.738,28.645-116.746,104.203-116.746,183.75v275.947h-42.359v-400.033
	c117.219-18.102,209.488-112.824,223.754-231.249c30.637-14.582,51.863-45.852,51.863-81.984c0-50.031-40.707-90.734-90.734-90.734
	h-451.389c-50.031,0-90.734,40.707-90.734,90.738c0,36.129,21.223,67.391,51.863,81.973
	c14.254,118.437,106.531,213.155,223.757,231.253v400.021h-102.468c-22.539,0-40.813,18.27-40.813,40.813
	s18.27,40.813,40.812,40.813h1653.033c22.538,0,40.812-18.27,40.812-40.813S-571.051,1918.226-593.593,1918.226z
	 M-2283.637,1295.592h108.32c22.539,0,40.813-18.27,40.813-40.813c0-22.539-18.27-40.813-40.813-40.813h-150.339
	c-0.95,0-1.883,0.078-2.82,0.145c-0.191-0.004-0.375-0.027-0.566-0.027c-4.938,0-9.109-4.172-9.109-9.113
	c0-4.938,4.171-9.109,9.109-9.109h451.397c4.938,0,9.109,4.172,9.109,9.113c0,4.938-4.172,9.109-9.137,9.109
	c-22.539,0-40.813,18.27-40.813,40.813c0,101.929-82.93,184.858-184.858,184.858
	C-2191.29,1439.755-2265.043,1378.001-2283.637,1295.592z M-1751.565,642.375c-10.641,6.563-20.082,2.215-23.656,0.035
	c-3.59-2.191-11.843-8.648-10.862-21.218c0.03-0.418,0.059-0.828,0.078-1.246l3.699-78.141
	c112.198-55.156,237.162-84.238,362.928-84.238s250.729,29.082,362.932,84.238l3.699,78.137c0.016,0.402,0.043,0.809,0.078,1.207
	c0.973,12.605-7.293,19.066-10.895,21.261c-3.562,2.168-12.999,6.512-23.593-0.027c-99.645-61.612-214.522-94.175-332.218-94.175
	C-1537.07,548.212-1651.944,580.782-1751.565,642.375z M-1678.612,213.135l259.206-58.25l259.312,58.25
	c48.684,10.938,83.992,51.734,87.848,101.508l10.395,134.944c-112.348-48.27-234.585-73.636-357.526-73.636
	c-122.925,0-245.144,25.363-357.479,73.617l10.391-134.925C-1762.636,264.865-1727.335,224.08-1678.612,213.135z M-1690.94,1131.175
	c-31.188-21.117-51.887-59.73-55.645-103.785V960.78c0-22.539-18.27-40.813-40.812-40.813c-27.902,0-50.602-22.703-50.602-50.601
	c0-27.898,22.703-50.602,50.602-50.602c22.539,0,40.812-18.27,40.812-40.813v-51.949c13.18-2.176,26.063-6.867,37.918-14.188
	c175.741-108.655,402.847-108.659,578.615,0.016c11.41,7.043,23.781,11.645,36.453,13.918v52.199
	c0,22.539,18.27,40.813,40.812,40.813c27.902,0,50.602,22.703,50.602,50.602c0,27.897-22.703,50.601-50.602,50.601
	c-22.538,0-40.812,18.27-40.812,40.813v66.602c-3.707,43.16-25.164,82.707-56.324,103.805l-219.112,125.64
	c-0.746,0.43-1.473,0.879-2.191,1.352c-30.59,20.211-67.125,20.211-97.723,0c-0.73-0.484-1.473-0.941-2.238-1.375L-1690.94,1131.175
	z M-1296.41,1309.271v163.347c0,67.887-55.395,123.117-123.484,123.117c-68.309,0-123.879-55.23-123.879-123.117v-163.296
	l31.008,17.73c28.645,18.604,60.66,27.905,92.676,27.905c32.023,0,64.047-9.308,92.695-27.921L-1296.41,1309.271z
	 M-1840.209,1918.226h-98.344v-275.948c0-45.999,28.598-92.604,66.52-108.409l19.023-7.926c8.41,18.074,12.797,37.719,12.797,58.027
	v334.256H-1840.209L-1840.209,1918.226z M-1199.513,1918.226h-439.729v-93.866h439.729V1918.226L-1199.513,1918.226z
	 M-1081.599,1583.966v334.26h-36.289v-134.679c0-22.539-18.27-40.813-40.813-40.813h-521.354c-22.539,0-40.813,18.27-40.813,40.813
	v134.679h-37.723v-334.26c0-31.262-6.508-61.508-19.019-89.441l152.206-63.418v41.52c0,112.895,92.19,204.741,205.503,204.741
	c113.098,0,205.108-91.847,205.108-204.741v-41.52l152.206,63.418C-1075.091,1522.458-1081.599,1552.704-1081.599,1583.966z
	 M-901.635,1918.226h-98.344v-334.26c0-20.309,4.387-39.945,12.801-58.027l19.027,7.926c37.922,15.801,66.52,62.406,66.52,108.409
	v275.952H-901.635L-901.635,1918.226z"/>
<path d="M872.653,1236.482c0,0,72.859,41.442,127.985,41.442s125.691-39.679,125.691-39.679l59.91,8.268
	c0,0-135.41,67.704-186.377,67.704s-178.251-67.704-178.251-67.704L872.653,1236.482z"/>
<path fill="#010101" d="M1866.597,1984.844c0,6.627-5.373,12-12,12H146.681c-6.627,0-12-5.373-12-12v-33c0-6.627,5.373-12,12-12
	h1707.916c6.627,0,12,5.373,12,12V1984.844z"/>
<path d="M599.171,492.467c0.155-3.272,208.351-64.104,400.743-59.721c198.742,4.528,390.944,73.178,390.944,73.178v32.771
	c0,0-324.89-69.096-390.235-66.771c-65.944,2.346-407.599,52.772-407.599,52.772S598.271,511.503,599.171,492.467z"/>
</svg>
