<?xml version="1.0" encoding="utf-8"?>
<!-- Generator: Adobe Illustrator 16.0.0, SVG Export Plug-In . SVG Version: 6.00 Build 0)  -->
<!DOCTYPE svg PUBLIC "-//W3C//DTD SVG 1.1//EN" "http://www.w3.org/Graphics/SVG/1.1/DTD/svg11.dtd">
<svg version="1.1" id="Layer_1" xmlns="http://www.w3.org/2000/svg" xmlns:xlink="http://www.w3.org/1999/xlink" x="0px" y="0px"
	 width="979.234px" height="935.69px" viewBox="0 0 979.234 935.69" enable-background="new 0 0 979.234 935.69"
	 xml:space="preserve">
<path fill="#4CAF4E" d="M968.941,710.809C910.783,875.14,752.417,863.006,701.957,838.221
	c-50.469-24.785-32.773-33.681-80.459-22.305c-47.684,11.375-34.471,53.546-100.461,66.142
	c-65.987,12.596-53.366-66.691-139.47-2.885c-86.103,63.807-108.067,72.478-264.149,31.614
	c-156.083-40.855-130.31-276.217-72.354-329.687c57.953-53.463,77.523-90.976,85.837-143.516
	c8.316-52.54-104.782-350.604,191.619-419.884c194.641-57.21,321.006,36.417,377.826,108.021
	c56.821,71.603,42.842,169.271,82.02,270.45C821.549,497.352,1027.101,546.473,968.941,710.809z"/>
<circle fill="#4CAF4E" cx="416.122" cy="914.463" r="21.23"/>
<circle fill="#4CAF4E" cx="45.508" cy="457.03" r="45.508"/>
<circle fill="#4CAF4E" cx="631.826" cy="865.751" r="16.435"/>
<circle fill="#4CAF4E" cx="836.897" cy="367.696" r="43.824"/>
</svg>
