<?xml version="1.0" encoding="utf-8"?>
<!-- Generator: Adobe Illustrator 16.0.0, SVG Export Plug-In . SVG Version: 6.00 Build 0)  -->
<!DOCTYPE svg PUBLIC "-//W3C//DTD SVG 1.1//EN" "http://www.w3.org/Graphics/SVG/1.1/DTD/svg11.dtd">
<svg version="1.1" id="Layer_1" xmlns="http://www.w3.org/2000/svg" xmlns:xlink="http://www.w3.org/1999/xlink" x="0px" y="0px"
	 width="752.704px" height="704.006px" viewBox="0 0 752.704 704.006" enable-background="new 0 0 752.704 704.006"
	 xml:space="preserve">
<g>
	<path fill="#4CAF4E" d="M115.504,62.567c86.63-86.628,183.404-30.997,207.909,0c24.506,30.995,10.589,31.282,44.277,38.5
		c33.689,7.219,38.073-23.529,83.739-11.543c45.668,11.986,13.663,58.453,87.588,44.046c73.925-14.408,90.484-13.26,177.114,59.901
		c86.627,73.161-0.959,214.639-53.902,231.01c-52.94,16.369-76.707,34.238-97.886,65.045
		c-21.176,30.807-39.665,254.094-248.63,208.318c-140.775-22.628-192.58-120.262-206.947-182.877
		c-14.368-62.614,24.064-120.332,29.839-196.365C144.381,242.567,28.876,149.195,115.504,62.567z"/>
	<circle fill="#4CAF4E" cx="378.761" cy="14.921" r="14.92"/>
	<circle fill="#4CAF4E" cx="55.084" cy="321.708" r="31.982"/>
	<circle fill="#4CAF4E" cx="11.551" cy="395.604" r="11.551"/>
	<path fill="#4CAF4E" d="M677.63,541.909c0,17.014-13.789,30.803-30.803,30.803c-17.009,0-30.798-13.789-30.798-30.803
		c0-17.011,13.789-30.8,30.798-30.8C663.841,511.109,677.63,524.898,677.63,541.909z"/>
</g>
</svg>
