<?xml version="1.0" encoding="utf-8"?>
<!-- Generator: Adobe Illustrator 16.0.0, SVG Export Plug-In . SVG Version: 6.00 Build 0)  -->
<!DOCTYPE svg PUBLIC "-//W3C//DTD SVG 1.1//EN" "http://www.w3.org/Graphics/SVG/1.1/DTD/svg11.dtd">
<svg version="1.1" id="Layer_1" xmlns="http://www.w3.org/2000/svg" xmlns:xlink="http://www.w3.org/1999/xlink" x="0px" y="0px"
	 width="702.39px" height="699.388px" viewBox="0 0 702.39 699.388" enable-background="new 0 0 702.39 699.388"
	 xml:space="preserve">
<g>
	<path fill="#4CAF4E" d="M667.186,89.678c76.199,95.894,9.94,185.695-23.632,206.512c-33.572,20.818-32.275,6.962-43.275,39.604
		c-11.001,32.643,19.047,40.492,1.95,84.49c-17.096,43.998-59.616,6.927-53.707,81.993s2.887,91.381-79.633,169.111
		c-82.516,77.733-213.087-25.348-223.33-79.797c-10.243-54.445-25.288-80.084-53.482-104.62
		c-28.193-24.536-247.878-68.28-178.656-270.639C51.897,79.077,154.764,38.717,218.591,31.563
		c63.827-7.154,116.789,37.58,191.656,51.959C485.11,97.901,590.985-6.215,667.186,89.678z"/>
	<circle fill="#4CAF4E" cx="595.601" cy="498.184" r="14.917"/>
	<circle fill="#4CAF4E" cx="162.778" cy="530.157" r="31.975"/>
	<circle fill="#4CAF4E" cx="648.194" cy="354.716" r="11.548"/>
	<path fill="#4CAF4E" d="M463.222,30.792c0,17.009-13.786,30.795-30.798,30.795c-17.006,0-30.792-13.786-30.792-30.795
		C401.632,13.786,415.418,0,432.424,0C449.436,0,463.222,13.786,463.222,30.792z"/>
</g>
</svg>
